<svg xmlns="http://www.w3.org/2000/svg" viewBox="0 0 134.41 126.87"><defs><style>.cls-1{fill:#b9e3e3;}</style></defs><title>logo_invert</title><g id="Layer_2" data-name="Layer 2"><g id="Layer_1-2" data-name="Layer 1"><polygon class="cls-1" points="124.42 124.42 2.46 124.42 2.46 2.46 124.42 2.46 124.42 65.99 126.87 65.99 126.87 0 0 0 0 126.87 126.87 126.87 126.87 101.86 124.42 101.86 124.42 124.42"/><polygon class="cls-1" points="26.22 62.66 26.22 48.89 31.48 48.89 31.48 45.11 16.43 45.11 16.43 48.89 21.64 48.89 21.64 62.66 26.22 62.66"/><polygon class="cls-1" points="35.33 45.11 35.33 62.66 39.91 62.66 39.91 55.93 47 55.93 47 62.66 51.58 62.66 51.58 45.11 47 45.11 47 52.27 39.91 52.27 39.91 45.11 35.33 45.11"/><polygon class="cls-1" points="70.83 48.77 70.83 45.11 56.98 45.11 56.98 62.66 71.08 62.66 71.08 59.01 61.56 59.01 61.56 55.7 69.92 55.68 69.92 52.05 61.56 52.05 61.56 48.77 70.83 48.77"/><path class="cls-1" d="M24.79,89.12a11.2,11.2,0,0,1-6.36-2.65l-1.78,3.58a13.25,13.25,0,0,0,8.09,2.8c3.91,0,7.06-1.83,7.06-5.41,0-6.31-9.24-4.65-9.24-7.56,0-.8.73-1.2,1.83-1.2a13.68,13.68,0,0,1,5.66,1.88l1.73-3.63a13.43,13.43,0,0,0-7-2c-4.24,0-7,2.08-7,5.36,0,6.21,9.23,4.4,9.23,7.38C27,88.62,26.14,89.12,24.79,89.12Z"/><path class="cls-1" d="M44.09,92.9a6.28,6.28,0,0,0,5.66,4,8.13,8.13,0,0,0,5.11-1.95L53.25,92.1a5.71,5.71,0,0,1-3,1.3,2.76,2.76,0,0,1-2-1.15A8.77,8.77,0,0,0,54,83.91C54,78.83,49.92,75,44.49,75S35,78.81,35,83.91,38.86,92.7,44.09,92.9Zm.45-14a5,5,0,0,1,0,10.07,5,5,0,0,1-4.83-5.06A4.89,4.89,0,0,1,44.54,78.93Z"/><path class="cls-1" d="M66.19,92.9c4.94,0,8-2.93,8-7.56V75.15H69.65V85.34A3.33,3.33,0,0,1,66.22,89a3.43,3.43,0,0,1-3.58-3.66V75.15H58.06V85.34C58.06,90,61.24,92.9,66.19,92.9Z"/><path class="cls-1" d="M77,92.7h4.7l1.23-3.1h7.59l1.2,3.1h4.88L89.25,75.15H84.54Zm12.17-6.61H84.32l2.45-6.26Z"/><path class="cls-1" d="M115.38,81.31c0-3.9-2.65-6.16-7.31-6.16h-7.88V92.7h4.58V87.85h3.4l2.56,4.85h5.18L112.25,87A5.93,5.93,0,0,0,115.38,81.31Zm-7.28,2.88h-3.33V78.81h3.33c1.85,0,2.93.92,2.93,2.65S110,84.19,108.1,84.19Z"/><polygon class="cls-1" points="124.89 89.05 124.89 85.74 133.26 85.72 133.26 82.09 124.89 82.09 124.89 78.81 134.16 78.81 134.16 75.15 120.31 75.15 120.31 92.7 134.41 92.7 134.41 89.05 124.89 89.05"/></g></g></svg>